<?xml version="1.0" encoding="UTF-8" standalone="no"?>
<!-- Created with Inkscape (http://www.inkscape.org/) -->

<svg
   width="136.36623mm"
   height="37.041691mm"
   viewBox="0 0 136.36623 37.041691"
   version="1.1"
   id="tokei-logo"
   xmlns="http://www.w3.org/2000/svg"
   xmlns:svg="http://www.w3.org/2000/svg">
  <defs
     id="defs1" />
  <g
     id="layer1"
     transform="translate(-38.787236,-121.52612)">
    <path
       style="text-align:center;text-anchor:middle;opacity:0.96;fill:#000000;stroke-width:0.264583"
       d="m 38.787238,123.32529 1.799167,-1.79917 h 5.556254 l 1.799167,1.79917 -1.799167,1.85208 h -5.556254 z m 9.683755,0.52917 1.799168,1.79916 v 12.06501 l -1.799168,1.79917 -1.852084,-1.79917 v -12.06501 z m -1.852084,18.52084 1.852084,-1.85208 1.799168,1.85208 v 12.06501 l -1.799168,1.74625 -1.852084,-1.74625 z m 2.328335,-19.05001 1.799167,-1.79917 h 5.556254 l 1.799168,1.79917 -1.799168,1.85208 h -5.556254 z m 18.573734,0.52917 1.852084,1.79916 v 12.06501 l -1.852084,1.79917 -1.799168,-1.79917 v -12.06501 z m -1.799168,18.52084 1.799168,-1.85208 1.852084,1.85208 v 12.06501 l -1.852084,1.74625 -1.799168,-1.74625 z m 9.683756,12.54126 1.799167,1.85208 -1.799167,1.79917 h -5.556254 l -1.799167,-1.79917 1.799167,-1.85208 z m -7.355421,-31.59127 1.799167,-1.79917 h 5.556254 l 1.799167,1.79917 -1.799167,1.85208 h -5.556254 z m 21.642929,14.39334 -1.799167,1.79917 -1.852085,-1.79917 v -12.06501 l 1.852085,-1.79916 1.799167,1.79916 z m -1.799167,18.46793 -1.852085,-1.74625 V 142.3753 l 1.852085,-1.85208 1.799167,1.85208 v 12.06501 z m -2.328335,-1.27 1.799168,1.85208 -1.799168,1.79917 h -5.556254 l -1.799167,-1.79917 1.799167,-1.85208 z m -7.355421,-31.59127 1.799167,-1.79917 h 5.556254 l 1.799168,1.79917 -1.799168,1.85208 h -5.556254 z m 18.573734,0.52917 1.852084,1.79916 v 12.06501 l -1.852084,1.79917 -1.799168,-1.79917 v -12.06501 z m -1.799168,18.52084 1.799168,-1.85208 1.852084,1.85208 v 12.06501 l -1.852084,1.74625 -1.799168,-1.74625 z m 2.328335,-2.38125 1.799167,-1.74625 h 5.556251 l 1.79917,1.74625 -1.79917,1.85208 h -5.556251 z m 13.546678,-2.27542 h -1.5875 v -4.23334 l 3.96875,-7.83167 h 1.5875 v 4.23334 z m 3.96875,16.72168 h -1.5875 l -3.96875,-7.83167 v -4.23334 h 1.5875 l 3.96875,7.83167 z m 11.21831,-30.58585 1.85208,1.79916 v 12.06501 l -1.85208,1.79917 -1.79917,-1.79917 v -12.06501 z m -1.79917,18.52084 1.79917,-1.85208 1.85208,1.85208 v 12.06501 l -1.85208,1.74625 -1.79917,-1.74625 z m 9.68376,12.54126 1.79917,1.85208 -1.79917,1.79917 h -5.55626 l -1.79916,-1.79917 1.79916,-1.85208 z m -7.35542,-31.59127 1.79916,-1.79917 h 5.55626 l 1.79917,1.79917 -1.79917,1.85208 h -5.55626 z m 17.51542,31.59127 1.79917,1.85208 -1.79917,1.79917 h -5.55625 l -1.79917,-1.79917 1.79917,-1.85208 z m -7.35542,-31.59127 1.79917,-1.79917 h 5.55625 l 1.79917,1.79917 -1.79917,1.85208 h -5.55625 z m -10.16,16.66876 1.79916,-1.74625 h 5.55626 l 1.79917,1.74625 -1.79917,1.85208 h -5.55626 z m 10.16,0 1.79917,-1.74625 h 5.55625 l 1.79917,1.74625 -1.79917,1.85208 h -5.55625 z m 26.45833,14.92251 1.79916,1.85208 -1.79916,1.79917 h -5.55626 l -1.79916,-1.79917 1.79916,-1.85208 z m -7.35542,-31.59127 1.79916,-1.79917 h 5.55626 l 1.79916,1.79917 -1.79916,1.85208 h -5.55626 z m 9.68375,0.52917 1.79917,1.79916 v 12.06501 l -1.79917,1.79917 -1.85208,-1.79917 v -12.06501 z m -1.85208,18.52084 1.85208,-1.85208 1.79917,1.85208 v 12.06501 l -1.79917,1.74625 -1.85208,-1.74625 z m 9.68375,12.54126 1.79917,1.85208 -1.79917,1.79917 h -5.55625 l -1.79917,-1.79917 1.79917,-1.85208 z m -7.35542,-31.59127 1.79917,-1.79917 h 5.55625 l 1.79917,1.79917 -1.79917,1.85208 h -5.55625 z"
       id="text1"
       aria-label="TOKEI" />
  </g>
</svg>
